<svg width="32" height="32" viewBox="0 0 32 32" fill="none" xmlns="http://www.w3.org/2000/svg" role="img" aria-label="ToolBelt symbol mark">
<path d="M15.9989 0C7.16326 0 0 7.16372 0 16C0 22.4318 3.79708 27.9743 9.2708 30.5151L12.0973 17.2458C12.1634 16.8618 12.2999 16.2175 12.4023 15.7333C12.5879 14.865 11.82 14.2272 11.067 14.2314L8.45384 14.2826C8.00587 14.2826 7.45337 14.7519 7.17606 15.0677C6.82406 15.4687 6.34625 15.7312 5.81291 15.7354C4.72501 15.744 4.18531 15.7375 4.18531 15.7375C4.85726 12.4053 9.41801 9.61277 13.6439 9.58289L19.4739 9.55732C19.6211 9.55732 19.7661 9.64265 19.8045 9.78555C20.0093 10.5706 20.9372 10.7413 22.7015 10.7371L24.2116 10.6987L24.3482 10.0351C24.4164 9.70663 24.7065 9.46982 25.0416 9.46982H27.1084C27.5565 9.46982 27.8935 9.88157 27.804 10.3189L26.8504 15.0229C26.7843 15.3536 26.492 15.5904 26.155 15.5904H24.0708C23.6209 15.5904 23.2858 15.1786 23.3776 14.7391L23.4885 14.2015L21.5602 14.2357C18.9065 14.3168 18.3838 15.7973 18.0894 17.2437L14.9963 31.9658C15.3291 31.9872 15.664 32 16.0011 32C24.8366 32 32 24.8362 32 16C31.9979 7.16372 24.8345 0 15.9989 0Z" fill="#FCCD0A"/>
</svg>
