<svg width="783" height="202" viewBox="0 0 783 202" fill="none" xmlns="http://www.w3.org/2000/svg">
<g clip-path="url(#clip0_36101_8984)">
<mask id="mask0_36101_8984" style="mask-type:luminance" maskUnits="userSpaceOnUse" x="0" y="0" width="783" height="202">
<path d="M783 0H0V202H783V0Z" fill="white"/>
</mask>
<g mask="url(#mask0_36101_8984)">
<mask id="mask1_36101_8984" style="mask-type:luminance" maskUnits="userSpaceOnUse" x="0" y="0" width="200" height="202">
<path d="M199.159 0H0V201.408H199.159V0Z" fill="white"/>
</mask>
<g mask="url(#mask1_36101_8984)">
<path d="M99.5725 0C44.5821 0 0 45.0884 0 100.704C0 141.186 23.632 176.07 57.6988 192.062L75.2902 108.545C75.7016 106.128 76.5513 102.073 77.1886 99.025C78.3436 93.5601 73.5643 89.5456 68.8779 89.5724L52.6143 89.8946C49.8262 89.8946 46.3876 92.8485 44.6617 94.8357C42.471 97.36 39.4972 99.0118 36.1779 99.0386C29.4071 99.0923 26.0482 99.0519 26.0482 99.0519C30.2302 78.0786 58.615 60.5026 84.9155 60.3146L121.2 60.1536C122.116 60.1536 123.019 60.6907 123.258 61.5901C124.532 66.5315 130.307 67.6058 141.288 67.5789L150.686 67.3372L151.536 63.1611C151.96 61.0934 153.766 59.6029 155.852 59.6029H168.715C171.504 59.6029 173.601 62.1945 173.044 64.947L167.109 94.5539C166.698 96.6351 164.879 98.1256 162.781 98.1256H149.81C147.01 98.1256 144.924 95.5341 145.496 92.768L146.185 89.3843L134.185 89.5993C117.668 90.1096 114.415 99.428 112.584 108.532L93.3329 201.192C95.4038 201.327 97.4881 201.408 99.586 201.408C154.576 201.408 199.159 156.319 199.159 100.704C199.146 45.0884 154.563 0 99.5725 0Z" fill="#FCCD0A"/>
</g>
<path d="M282.447 151.299H250.993L267.591 73.6734H239.107L244.486 48.1426H330.912L325.532 73.6734H298.995L282.447 151.299Z" fill="white"/>
<path d="M362.879 83.8053C370.716 89.5418 374.661 98.638 374.661 110.421C374.661 134.66 357.193 153.265 334.344 153.265C325.532 153.265 317.284 150.579 311.291 145.72C304.374 140.036 300.584 131.301 300.584 120.603C300.584 108.613 305.297 96.9323 313.34 89.0248C321.383 81.221 330.809 77.4482 342.181 77.4482C350.021 77.4482 357.296 79.6706 362.879 83.8053ZM329.989 100.705C325.482 106.339 322.715 114.142 322.715 121.585C322.715 129.492 327.531 135.022 334.295 135.022C344.18 135.022 352.839 122.463 352.839 108.199C352.839 100.188 348.329 94.7616 341.566 94.7616C337.162 94.71 333.218 96.7773 329.989 100.705Z" fill="white"/>
<path d="M441.107 83.8053C448.946 89.5418 452.891 98.638 452.891 110.421C452.891 134.66 435.421 153.265 412.572 153.265C403.76 153.265 395.511 150.579 389.518 145.72C382.55 140.087 378.813 131.352 378.813 120.603C378.813 108.613 383.525 96.9323 391.569 89.0248C399.611 81.221 409.037 77.4482 420.408 77.4482C428.199 77.4482 435.523 79.6706 441.107 83.8053ZM408.168 100.705C403.658 106.339 400.893 114.142 400.893 121.585C400.893 129.492 405.706 135.022 412.469 135.022C422.358 135.022 431.013 122.463 431.013 108.199C431.013 100.188 426.507 94.7616 419.744 94.7616C415.34 94.71 411.396 96.7773 408.168 100.705Z" fill="white"/>
<path d="M507.348 131.867L503.248 150.99H452.785L468.003 78.8418H490.389L479.222 131.867H507.348Z" fill="white"/>
<path d="M530.094 60.7549H572.717C583.781 60.7549 588.905 61.8404 593.464 64.9929C598.843 68.8173 602.378 76.0012 602.378 83.2365C602.378 93.4179 596.848 101.067 586.857 104.995C594.029 108.25 597.667 114.09 597.667 122.67C597.667 133.006 592.133 141.998 582.81 146.754C576.354 150.01 568.517 151.509 558.679 151.509H510.932L530.094 60.7549ZM557.707 129.079C566.723 129.079 571.848 125.822 571.848 120.241C571.848 117.502 570.103 115.228 567.288 113.987C565.392 113.16 564.163 113.057 559.858 113.057H545.156L541.773 129.13H557.707V129.079ZM562.316 95.5886C571.488 95.5886 576.354 92.8494 576.354 87.6811C576.354 83.4435 573.126 81.4278 566.773 81.4278H551.813L548.843 95.5886H562.316Z" fill="white"/>
<path d="M630.913 105.923H663.393L659.858 122.565H627.378L625.33 132.178H664.777L660.832 150.99H599.51L614.724 78.8418H674.457L670.516 97.5506H632.657L630.913 105.923Z" fill="white"/>
<path d="M722.871 131.867L718.774 150.99H668.312L683.529 78.8418H705.916L694.746 131.867H722.871Z" fill="white"/>
<path d="M748.69 150.99H726.049L737.421 97.2404H716.927L720.77 78.8418H782.964L779.121 97.2404H760.012L748.69 150.99Z" fill="white"/>
</g>
</g>
<defs>
<clipPath id="clip0_36101_8984">
<rect width="783" height="202" fill="white"/>
</clipPath>
</defs>
</svg>
